<svg xmlns="http://www.w3.org/2000/svg" width="400" height="400" viewBox="0 0 400 400" version="1.1"><path d="M 244 218.683 C 216.563 223.618, 216.117 249.767, 243.244 263.016 C 266.316 274.285, 254.365 288.165, 229.750 278.688 L 223 276.090 223 283.464 L 223 290.839 228.250 292.670 C 267.485 306.348, 288.428 268.795, 251.819 250.409 C 230.718 239.812, 237.979 225.541, 260.180 233.976 C 263.040 235.063, 265.492 235.841, 265.628 235.706 C 266.369 234.964, 270 225.624, 270 224.457 C 270 221.728, 250.790 217.462, 244 218.683 M 98 257 L 98 294 105.973 294 L 113.945 294 114.223 279.750 L 114.500 265.500 117.625 265.196 C 121.677 264.802, 122.332 265.524, 131.569 280.580 C 140.417 295.003, 139.312 294.181, 149.346 293.795 L 157.015 293.500 146.363 277.548 C 139.452 267.198, 136.163 261.446, 136.997 261.168 C 143.306 259.065, 149.009 249.630, 148.978 241.349 C 148.917 224.961, 140.752 220, 113.841 220 L 98 220 98 257 M 160 226.500 L 160 233 170 233 L 180 233 180 263.500 L 180 294 188 294 L 196 294 196 263.500 L 196 233 206 233 L 216 233 216 226.500 L 216 220 188 220 L 160 220 160 226.500 M 114.217 242.397 L 114.500 252.500 120 252.263 C 129.801 251.842, 133 249.439, 133 242.500 C 133 235.552, 130.037 233.361, 119.717 232.678 L 113.933 232.295 114.217 242.397" stroke="none" fill="#0b0404" fill-rule="evenodd"/><path d="M 65.015 42.548 C -13.123 62.731, -23.394 172.478, 49.773 205.402 L 54 207.304 54 227.652 L 54 248 36.479 248 L 18.958 248 19.229 267.750 L 19.500 287.500 36.750 287.774 L 54 288.047 54 310.137 C 54 334.427, 54.516 336.801, 60.818 341.500 C 63.458 343.469, 65.271 343.504, 177.584 343.762 L 291.667 344.025 295.084 341.754 C 301.938 337.199, 303 333.111, 303 311.288 L 303 292 312.930 292 L 322.859 292 346.112 301.984 C 358.901 307.475, 369.512 311.821, 369.692 311.642 C 369.871 311.462, 369.902 288.560, 369.759 260.748 L 369.500 210.181 346.236 220.091 L 322.973 230 312.986 230 L 303 230 303 216.095 L 303 202.190 307.608 199.490 C 354.113 172.236, 360.169 100.742, 319.179 62.888 C 268.718 16.288, 185.247 44.824, 174.062 112.500 C 173.607 115.250, 173.182 116.559, 173.118 115.410 C 170.415 67.380, 114.579 29.746, 65.015 42.548 M 75.500 74.170 C 50.375 78.927, 31.603 103.757, 33.292 130 C 36.241 175.815, 92.068 196.932, 124.500 164.500 C 161.918 127.082, 127.841 64.261, 75.500 74.170 M 247.832 74.542 C 207.092 84.424, 192.669 134.374, 222 164.005 C 247.714 189.982, 290.515 183.654, 307.744 151.329 C 329.009 111.432, 291.888 63.855, 247.832 74.542 M 78.317 86.046 C 57.345 90.192, 41.964 112.574, 45.824 133.332 C 51.909 166.048, 90.571 179.236, 114.574 156.782 C 145.100 128.226, 119.326 77.940, 78.317 86.046 M 252 86.098 C 223.536 91.657, 209.710 125.368, 225.933 149.661 C 240.383 171.300, 270.970 174.178, 289.483 155.641 C 318.128 126.957, 291.905 78.305, 252 86.098 M 388.767 201.962 L 378.033 206.500 378.017 261.043 L 378 315.585 388.750 320.124 L 399.500 324.663 399.764 292.831 C 399.909 275.324, 399.909 246.695, 399.764 229.212 L 399.500 197.423 388.767 201.962 M 244 218.683 C 216.563 223.618, 216.117 249.767, 243.244 263.016 C 266.316 274.285, 254.365 288.165, 229.750 278.688 L 223 276.090 223 283.464 L 223 290.839 228.250 292.670 C 267.485 306.348, 288.428 268.795, 251.819 250.409 C 230.718 239.812, 237.979 225.541, 260.180 233.976 C 263.040 235.063, 265.492 235.841, 265.628 235.706 C 266.369 234.964, 270 225.624, 270 224.457 C 270 221.728, 250.790 217.462, 244 218.683 M 98 257 L 98 294 105.973 294 L 113.945 294 114.223 279.750 L 114.500 265.500 117.625 265.196 C 121.677 264.802, 122.332 265.524, 131.569 280.580 C 140.417 295.003, 139.312 294.181, 149.346 293.795 L 157.015 293.500 146.363 277.548 C 139.452 267.198, 136.163 261.446, 136.997 261.168 C 143.306 259.065, 149.009 249.630, 148.978 241.349 C 148.917 224.961, 140.752 220, 113.841 220 L 98 220 98 257 M 160 226.500 L 160 233 170 233 L 180 233 180 263.500 L 180 294 188 294 L 196 294 196 263.500 L 196 233 206 233 L 216 233 216 226.500 L 216 220 188 220 L 160 220 160 226.500 M 114.217 242.397 L 114.500 252.500 120 252.263 C 129.801 251.842, 133 249.439, 133 242.500 C 133 235.552, 130.037 233.361, 119.717 232.678 L 113.933 232.295 114.217 242.397" stroke="none" fill="#f24435" fill-rule="evenodd"/></svg>